<svg width="151" height="28" viewBox="0 0 151 28" fill="none" xmlns="http://www.w3.org/2000/svg">
<g transform="translate(-2.3516 -2.3516) scale(0.144704)">
<g class="logo-smily-face" style="transform-box:view-box;transform-origin:113px 113px">
<path d="M91.4595 26.5015C102.568 12.8345 123.432 12.8345 134.54 26.5015C140.447 33.7678 149.618 37.5668 158.932 36.6049C176.451 34.7958 191.204 49.5488 189.395 67.0678C188.433 76.382 192.232 85.5535 199.498 91.4595C213.165 102.568 213.165 123.432 199.498 134.54C192.232 140.447 188.433 149.618 189.395 158.932C191.204 176.451 176.451 191.204 158.932 189.395C149.618 188.433 140.447 192.232 134.54 199.498C123.432 213.165 102.568 213.165 91.4595 199.498C85.5535 192.232 76.382 188.433 67.0678 189.395C49.5488 191.204 34.7958 176.451 36.6049 158.932C37.5668 149.618 33.7678 140.447 26.5015 134.54C12.8345 123.432 12.8345 102.568 26.5015 91.4595C33.7678 85.5535 37.5668 76.382 36.6049 67.0678C34.7958 49.5488 49.5488 34.7958 67.0678 36.6049C76.382 37.5668 85.5535 33.7678 91.4595 26.5015Z" fill="#34D59A"/>
</g>
<circle cx="80.5" cy="112.5" r="7.5" fill="#0C0D0D"/>
<g class="logo-smily-eye" style="transform-box:view-box;transform-origin:130.5px 112.5px">
<path d="M 123 112.5 C 123 116.642 126.358 120 130.5 120 C 134.642 120 138 116.642 138 112.5 C 138 108.358 134.589 104.915 130.447 104.915 C 126.305 104.915 123 108.358 123 112.5 Z" fill="#0C0D0D"/>
</g>
<path d="M90 127C97.2727 139 112.727 139 120 127" stroke="#0C0D0D" stroke-width="8" stroke-linecap="round" fill="none"/>
</g>
<path d="M36.0 23.0V5.0H43.215859030837Q45.67400881057269 5.0 47.32599118942731 6.493392070484581Q48.97797356828194 7.986784140969162 48.97797356828194 10.312775330396475Q48.97797356828194 12.612334801762115 47.31277533039648 14.039647577092511Q45.647577092511014 15.466960352422907 43.37444933920705 15.466960352422907H42.264317180616736V15.493392070484582Q42.68722466960352 15.731277533039648 43.05726872246696 16.101321585903083L49.79735682819383 23.0H45.93832599118942L38.881057268722465 15.466960352422907H38.82819383259912V23.0ZM38.82819383259912 13.035242290748899H42.68722466960352Q44.352422907488986 13.035242290748899 45.22466960352423 12.268722466960352Q46.09691629955947 11.502202643171806 46.09691629955947 10.312775330396475Q46.09691629955947 9.149779735682818 45.23788546255506 8.39647577092511Q44.37885462555066 7.6431718061674 42.74008810572687 7.6431718061674H38.82819383259912Z" fill="#FFFFFF"/>
<path d="M56.56387665198238 23.26431718061674Q54.13215859030837 23.26431718061674 52.40088105726873 21.519823788546255Q50.66960352422908 19.77533039647577 50.66960352422908 16.814977973568283Q50.66960352422908 13.82819383259912 52.40088105726873 12.083700440528634Q54.13215859030837 10.33920704845815 56.56387665198238 10.33920704845815Q57.93832599118943 10.33920704845815 59.04845814977974 10.907488986784141Q60.15859030837005 11.475770925110131 60.79295154185023 12.533039647577093L61.057268722466965 10.603524229074889H63.462555066079304V23.0H61.00440528634362L60.79295154185023 21.09691629955947Q59.47136563876653 23.26431718061674 56.56387665198238 23.26431718061674ZM57.145374449339215 20.779735682819382Q58.62555066079295 20.779735682819382 59.70925110132159 19.709251101321584Q60.79295154185023 18.63876651982379 60.79295154185023 16.814977973568283Q60.79295154185023 15.044052863436123 59.696035242290755 13.94713656387665Q58.59911894273128 12.85022026431718 57.145374449339215 12.85022026431718Q55.585903083700444 12.85022026431718 54.51541850220265 13.933920704845814Q53.44493392070485 15.017621145374449 53.44493392070485 16.814977973568283Q53.44493392070485 18.63876651982379 54.51541850220265 19.709251101321584Q55.585903083700444 20.779735682819382 57.145374449339215 20.779735682819382Z" fill="#FFFFFF"/>
<path d="M67.00440528634361 23.0V10.603524229074889H69.46255506607929L69.70044052863436 12.533039647577093Q71.02202643171806 10.33920704845815 73.71806167400881 10.33920704845815Q75.72687224669603 10.33920704845815 77.0748898678414 11.713656387665198Q78.42290748898678 13.088105726872246 78.42290748898678 15.651982378854626V23.0H75.62114537444934V16.154185022026432Q75.62114537444934 14.48898678414097 74.82819383259911 13.669603524229075Q74.0352422907489 12.85022026431718 72.87224669603523 12.85022026431718Q71.65638766519824 12.85022026431718 70.71806167400881 13.841409691629956Q69.77973568281938 14.832599118942731 69.77973568281938 16.365638766519822V23.0Z" fill="#FFFFFF"/>
<path d="M89.86784140969164 23.0 84.66079295154185 16.101321585903083V23.0H81.88546255506608V5.0H84.66079295154185V15.54625550660793L89.3920704845815 10.603524229074889H92.8546255506608L87.77973568281939 15.863436123348016L93.22466960352423 23.0Z" fill="#FFFFFF"/>
<path d="M99.17180616740089 23.26431718061674Q97.08370044052865 23.26431718061674 95.7092511013216 22.140969162995596Q94.33480176211454 21.01762114537445 94.22907488986785 19.19383259911894H96.95154185022027Q97.05726872246697 20.03964757709251 97.6784140969163 20.515418502202643Q98.29955947136564 20.991189427312776 99.17180616740089 20.991189427312776Q100.07048458149781 20.991189427312776 100.54625550660793 20.62114537444934Q101.02202643171807 20.251101321585903 101.02202643171807 19.696035242290748Q101.02202643171807 19.061674008810574 100.34801762114537 18.665198237885463Q99.67400881057269 18.26872246696035 98.7092511013216 18.004405286343612Q97.7444933920705 17.740088105726873 96.79295154185023 17.370044052863435Q95.84140969162996 17.0 95.16740088105728 16.154185022026432Q94.49339207048459 15.308370044052865 94.49339207048459 14.013215859030836Q94.49339207048459 12.506607929515418 95.66960352422907 11.422907488986784Q96.84581497797357 10.33920704845815 98.88105726872247 10.33920704845815Q100.83700440528635 10.33920704845815 102.07929515418502 11.370044052863435Q103.3215859030837 12.400881057268721 103.50660792951543 14.251101321585903H100.784140969163Q100.65198237885463 13.484581497797356 100.16299559471366 13.048458149779735Q99.67400881057269 12.612334801762115 98.88105726872247 12.612334801762115Q98.1409691629956 12.612334801762115 97.66519823788548 13.008810572687224Q97.18942731277534 13.405286343612335 97.18942731277534 14.013215859030836Q97.18942731277534 14.568281938325992 97.6784140969163 14.938325991189428Q98.16740088105728 15.308370044052865 98.89427312775331 15.493392070484582Q99.62114537444934 15.678414096916299 100.46696035242292 15.982378854625551Q101.31277533039648 16.286343612334804 102.03964757709252 16.65638766519824Q102.76651982378856 17.026431718061673 103.25550660792953 17.80616740088106Q103.7444933920705 18.58590308370044 103.7444933920705 19.696035242290748Q103.7444933920705 21.281938325991188 102.4229074889868 22.273127753303964Q101.1013215859031 23.26431718061674 99.17180616740089 23.26431718061674Z" fill="#FFFFFF"/>
<path d="M106.22907488986785 23.0V10.603524229074889H108.66079295154185L108.95154185022027 12.480176211453744Q110.22026431718062 10.33920704845815 112.73127753303964 10.33920704845815Q113.89427312775331 10.33920704845815 114.84581497797357 10.94713656387665Q115.79735682819384 11.555066079295154 116.29955947136564 12.638766519823788Q116.90748898678414 11.52863436123348 118.00440528634361 10.933920704845814Q119.10132158590308 10.33920704845815 120.31718061674009 10.33920704845815Q122.08810572687224 10.33920704845815 123.31718061674009 11.502202643171806Q124.54625550660793 12.665198237885463 124.54625550660793 14.832599118942731V23.0H121.74449339207048V15.493392070484582Q121.74449339207048 14.092511013215859 121.08370044052865 13.392070484581497Q120.4229074889868 12.691629955947135 119.4977973568282 12.691629955947135Q118.36123348017621 12.691629955947135 117.58149779735683 13.616740088105725Q116.80176211453744 14.541850220264317 116.80176211453744 16.233480176211454V23.0H114.0V15.493392070484582Q114.0 14.092511013215859 113.32599118942731 13.392070484581497Q112.65198237885463 12.691629955947135 111.72687224669603 12.691629955947135Q110.61674008810573 12.691629955947135 109.81057268722466 13.629955947136564Q109.00440528634361 14.568281938325992 109.00440528634361 16.233480176211454V23.0Z" fill="#FFFFFF"/>
<path d="M127.61233480176212 23.0V10.603524229074889H130.38766519823787V23.0ZM129.01321585903082 8.383259911894273Q128.24669603524228 8.383259911894273 127.73127753303964 7.881057268722467Q127.215859030837 7.378854625550661 127.215859030837 6.638766519823789Q127.215859030837 5.898678414096917 127.73127753303964 5.383259911894273Q128.24669603524228 4.8678414096916285 129.01321585903082 4.8678414096916285Q129.75330396475772 4.8678414096916285 130.26872246696036 5.383259911894273Q130.784140969163 5.898678414096917 130.784140969163 6.638766519823789Q130.784140969163 7.378854625550661 130.26872246696036 7.881057268722467Q129.75330396475772 8.383259911894273 129.01321585903082 8.383259911894273Z" fill="#FFFFFF"/>
<path d="M133.77092511013217 23.0V5.0H136.54625550660793V23.0Z" fill="#FFFFFF"/>
<path d="M145.45374449339207 23.26431718061674Q142.67841409691627 23.26431718061674 140.90748898678413 21.46696035242291Q139.13656387665196 19.669603524229075 139.13656387665196 16.814977973568283Q139.13656387665196 13.986784140969164 140.89427312775328 12.162995594713657Q142.6519823788546 10.33920704845815 145.4273127753304 10.33920704845815Q147.96475770925107 10.33920704845815 149.70925110132157 12.18942731277533Q151.45374449339207 14.039647577092511 151.45374449339207 16.814977973568283L151.4273127753304 17.819383259911895H141.91189427312773Q142.1762114537445 19.24669603524229 143.12775330396477 20.03964757709251Q144.07929515418502 20.83259911894273 145.4273127753304 20.83259911894273Q147.62114537444933 20.83259911894273 148.41409691629954 19.273127753303964H151.13656387665196Q150.5814977973568 21.123348017621144 149.02202643171805 22.19383259911894Q147.4625550660793 23.26431718061674 145.45374449339207 23.26431718061674ZM141.91189427312773 15.704845814977974H148.70484581497794Q148.57268722466958 14.48898678414097 147.647577092511 13.629955947136564Q146.72246696035242 12.770925110132158 145.4273127753304 12.770925110132158Q144.07929515418502 12.770925110132158 143.1409691629956 13.563876651982378Q142.20264317180616 14.356828193832598 141.91189427312773 15.704845814977974Z" fill="#FFFFFF"/>
</svg>
